Coordinates
version=1
nRows=18
nColumns=63
inDegrees=yes

Units are S.I. units (second, meters, Newtons, ...)
If the header above contains a line with 'inDegrees', this indicates whether rotational values are in degrees (yes) or radians (no).

endheader
time	pelvis_tilt	pelvis_list	pelvis_rotation	pelvis_tx	pelvis_ty	pelvis_tz	hip_flexion_r	hip_adduction_r	hip_rotation_r	knee_angle_r	knee_angle_r_beta	ankle_angle_r	subtalar_angle_r	mtp_angle_r	hip_flexion_l	hip_adduction_l	hip_rotation_l	knee_angle_l	knee_angle_l_beta	ankle_angle_l	subtalar_angle_l	mtp_angle_l	L5_S1_Flex_Ext	L5_S1_Lat_Bending	L5_S1_axial_rotation	L4_L5_Flex_Ext	L4_L5_Lat_Bending	L4_L5_axial_rotation	L3_L4_Flex_Ext	L3_L4_Lat_Bending	L3_L4_axial_rotation	L2_L3_Flex_Ext	L2_L3_Lat_Bending	L2_L3_axial_rotation	L1_L2_Flex_Ext	L1_L2_Lat_Bending	L1_L2_axial_rotation	L1_T12_Flex_Ext	L1_T12_Lat_Bending	L1_T12_axial_rotation	Abs_r3	Abs_r2	Abs_r1	Abs_t1	Abs_t2	neck_flexion	neck_bending	neck_rotation	arm_flex_r	arm_add_r	arm_rot_r	elbow_flex_r	pro_sup_r	wrist_flex_r	wrist_dev_r	arm_flex_l	arm_add_l	arm_rot_l	elbow_flex_l	pro_sup_l	wrist_flex_l	wrist_dev_l
3.050847	-0.613116	-3.454105	85.542858	0.110869	0.984411	0.282298	-4.864584	1.371898	-16.348775	1.868396	0.032610	16.835811	16.401582	0.000000	-2.449937	1.155244	1.814124	4.486168	0.078298	8.681931	-17.567286	0.000000	-0.099278	0.160681	0.420684	-0.184369	0.213705	0.446977	-0.163103	0.390679	0.446977	-0.113464	0.390679	0.368098	-0.092189	0.327660	0.341806	-0.056727	0.248894	0.315513	-0.709131	1.817650	2.339717	0.000000	0.000000	8.424457	-1.273508	-8.279348	21.219134	-6.557847	162.948362	0.133238	4.272083	-14.288550	-13.796975	17.539454	-11.953774	157.436461	5.871174	5.089616	-1.345069	-7.185669
3.067797	-0.743389	-3.675923	85.378356	0.111209	0.984686	0.283867	-4.460275	1.238150	-16.350219	2.007921	0.035045	16.676750	16.358173	0.000000	-2.140976	1.275502	1.460884	4.450696	0.077679	8.629125	-17.664190	0.000000	-0.081575	0.141463	0.385219	-0.151493	0.188145	0.409295	-0.134019	0.343952	0.409295	-0.093232	0.343952	0.337066	-0.075750	0.288471	0.312990	-0.046612	0.219126	0.288914	-0.582682	1.600254	2.142471	0.000000	0.000000	8.490041	-1.100260	-7.971924	22.592709	-5.674175	164.448793	0.220835	4.244936	-14.788257	-14.656099	18.202353	-12.079954	152.172886	5.853824	4.396749	-0.268849	-7.524811
3.084746	-0.918063	-3.916127	85.135288	0.111719	0.985019	0.285548	-3.998273	1.057559	-16.298767	2.172983	0.037926	16.552219	16.353141	0.000000	-1.798279	1.436768	1.025586	4.429619	0.077311	8.586521	-17.757443	0.000000	-0.061668	0.117330	0.351556	-0.114524	0.156048	0.373528	-0.101315	0.285275	0.373528	-0.070481	0.285275	0.307611	-0.057265	0.239259	0.285639	-0.035237	0.181744	0.263667	-0.440490	1.327256	1.955247	0.000000	0.000000	8.522979	-0.859062	-7.535838	23.894958	-4.548904	166.855756	0.258109	4.132900	-16.265866	-15.623553	18.880577	-12.148613	147.696577	5.665329	3.789134	0.636305	-7.891774
3.101695	-1.148434	-4.155445	84.812580	0.112459	0.985435	0.287316	-3.496841	0.818776	-16.169841	2.367313	0.041317	16.463202	16.369351	0.000000	-1.440579	1.648738	0.504103	4.418214	0.077112	8.553203	-17.820206	0.000000	-0.040592	0.086797	0.313936	-0.075384	0.115440	0.333557	-0.066689	0.211038	0.333557	-0.046393	0.211038	0.274694	-0.037694	0.176997	0.255073	-0.023195	0.134449	0.235452	-0.289948	0.981866	1.746020	0.000000	0.000000	8.498035	-0.538318	-6.907558	25.168579	-3.149443	169.567674	0.264342	4.008745	-17.779932	-16.716168	19.562214	-12.154296	144.550941	5.196430	3.354348	1.376703	-8.307279
3.118644	-1.394429	-4.382284	84.438512	0.113258	0.985968	0.289180	-2.973157	0.557992	-16.017239	2.589790	0.045200	16.386434	16.427276	0.000000	-1.074223	1.877645	-0.069515	4.424649	0.077225	8.564335	-17.838673	0.000000	-0.019890	0.055494	0.284060	-0.036938	0.073808	0.301814	-0.032677	0.134929	0.301814	-0.022732	0.134929	0.248552	-0.018470	0.113164	0.230799	-0.011365	0.085961	0.213045	-0.142073	0.627765	1.579855	0.000000	0.000000	8.391726	-0.218277	-6.213816	26.478330	-1.598364	172.263785	0.233095	3.813263	-18.363384	-17.814684	20.816512	-11.662895	146.831333	3.358399	-0.032250	2.944952	-9.859735
3.135593	-1.805670	-4.529674	84.057734	0.114705	0.986692	0.291239	-2.487590	0.153984	-15.858938	2.823771	0.049284	16.373044	16.490382	0.000000	-0.734660	2.242672	-0.692511	4.454798	0.077751	8.555317	-17.722515	0.000000	-0.002434	0.004916	0.181940	-0.004520	0.006538	0.193311	-0.003999	0.011952	0.193311	-0.002782	0.011952	0.159197	-0.002260	0.010024	0.147826	-0.001391	0.007614	0.136455	-0.017387	0.055605	1.011893	0.000000	0.000000	8.135980	0.207772	-4.709605	28.448887	1.561700	179.690346	-2.904179	-0.030154	-14.958698	-20.634453	21.677872	-11.661661	146.377366	2.405498	-0.417442	4.170782	-10.772958
3.152542	-2.209480	-4.687798	83.633677	0.116113	0.987266	0.293123	-1.984273	-0.245062	-15.661789	3.075742	0.053682	16.418819	16.584974	0.000000	-0.392180	2.603212	-1.312406	4.479751	0.078186	8.640845	-17.572505	0.000000	0.016248	-0.045029	0.109134	0.030174	-0.059888	0.115955	0.026694	-0.109483	0.115955	0.018570	-0.109483	0.095492	0.015088	-0.091823	0.088672	0.009284	-0.069750	0.081851	0.116057	-0.509375	0.606971	0.000000	0.000000	7.946666	0.615399	-3.421998	30.123937	4.130061	183.209067	-4.414744	-1.475238	-11.252029	-22.441935	22.515518	-11.688588	144.579983	1.992024	0.636512	5.065676	-11.301740
3.169492	-2.603838	-4.845726	83.169976	0.117498	0.987707	0.294810	-1.483093	-0.636317	-15.433413	3.336175	0.058227	16.508804	16.709699	0.000000	-0.064998	2.957315	-1.923204	4.490270	0.078370	8.792194	-17.399012	0.000000	0.035254	-0.094725	0.070304	0.065470	-0.125984	0.074698	0.057918	-0.230314	0.074698	0.040291	-0.230314	0.061516	0.032737	-0.193163	0.057122	0.020144	-0.146729	0.052728	0.251814	-1.071547	0.391011	0.000000	0.000000	7.817024	1.008291	-2.386770	31.508417	6.107440	183.154190	-4.383973	-1.104969	-7.406251	-23.288244	23.377115	-11.718341	141.947402	2.078330	2.161718	5.655372	-11.601463
3.186441	-2.972500	-4.992856	82.673539	0.118841	0.988021	0.296231	-1.005793	-1.005009	-15.165598	3.599823	0.062829	16.628625	16.850293	0.000000	0.226030	3.289859	-2.508612	4.482006	0.078226	8.999572	-17.219832	0.000000	0.054450	-0.142065	0.063367	0.101119	-0.188947	0.067328	0.089456	-0.345418	0.067328	0.062231	-0.345418	0.055446	0.050562	-0.289700	0.051486	0.031113	-0.220059	0.047525	0.388931	-1.607072	0.352429	0.000000	0.000000	7.723559	1.371383	-1.579566	32.622846	7.507657	180.042562	-2.911706	0.597397	-3.655238	-23.237214	24.219350	-11.737939	138.099595	2.670769	4.163608	6.013397	-11.734606
3.203390	-3.319547	-5.118105	82.150731	0.120136	0.988229	0.297374	-0.571887	-1.356341	-14.849594	3.855858	0.067297	16.773804	16.994724	0.000000	0.464082	3.607484	-3.078551	4.446647	0.077609	9.221413	-17.050255	0.000000	0.071962	-0.188197	0.095606	0.133641	-0.250302	0.101581	0.118227	-0.457582	0.101581	0.082246	-0.457582	0.083655	0.066824	-0.383771	0.077680	0.041119	-0.291517	0.071704	0.514020	-2.128919	0.531729	0.000000	0.000000	7.667839	1.684994	-1.093806	33.462321	8.355159	174.279859	-0.134737	3.359765	-0.187532	-22.449465	25.056077	-11.716899	133.558506	3.743854	6.116152	6.221011	-11.775368
3.220339	-3.629521	-5.219280	81.614783	0.121334	0.988340	0.298215	-0.193185	-1.675400	-14.481479	4.094858	0.071469	16.923556	17.117256	0.000000	0.642944	3.897032	-3.631212	4.383454	0.076506	9.448831	-16.897655	0.000000	0.087446	-0.230739	0.161437	0.162396	-0.306883	0.171527	0.143665	-0.561019	0.171527	0.099942	-0.561019	0.141258	0.081202	-0.470523	0.131168	0.049967	-0.357415	0.121078	0.624619	-2.610169	0.897865	0.000000	0.000000	7.643561	1.941312	-0.906725	34.053400	8.697543	166.551085	3.778112	6.826848	2.837940	-21.027303	25.845844	-11.666906	127.934960	5.356596	8.196396	6.237897	-11.794594
3.237288	-3.904017	-5.283653	81.077930	0.122451	0.988378	0.298764	0.117269	-1.964834	-14.071181	4.322055	0.075434	17.079192	17.216300	0.000000	0.751484	4.160196	-4.153251	4.296892	0.074995	9.660348	-16.775911	0.000000	0.098531	-0.270966	0.267859	0.182982	-0.360384	0.284601	0.161877	-0.658826	0.284601	0.112611	-0.658826	0.234377	0.091496	-0.552553	0.217636	0.056301	-0.419726	0.200895	0.703797	-3.065217	1.489754	0.000000	0.000000	7.645627	2.149366	-1.101353	34.355066	8.584750	157.036592	8.651724	11.115441	5.346228	-19.167335	26.694468	-11.573972	122.125240	7.439185	9.725412	6.013718	-12.004552
3.254237	-4.127074	-5.324653	80.565847	0.123402	0.988338	0.299009	0.360908	-2.206400	-13.646707	4.521714	0.078919	17.216329	17.281768	0.000000	0.800880	4.382370	-4.642198	4.184391	0.073031	9.851684	-16.671655	0.000000	0.107391	-0.304743	0.395385	0.199436	-0.405308	0.420097	0.176433	-0.740951	0.420097	0.122737	-0.740951	0.345962	0.099723	-0.621431	0.321251	0.061363	-0.472046	0.296539	0.767084	-3.447310	2.199014	0.000000	0.000000	7.673304	2.321610	-1.494054	34.427612	8.087730	146.425065	14.263465	15.607446	7.342531	-16.981082	27.423063	-11.515682	115.042302	10.142652	11.826925	5.389035	-12.138280
3.271186	-4.299757	-5.334081	80.083194	0.124181	0.988236	0.298980	0.534676	-2.405465	-13.218673	4.705106	0.082120	17.353136	17.315777	0.000000	0.788267	4.567064	-5.090738	4.058915	0.070841	10.021511	-16.593517	0.000000	0.112055	-0.332833	0.550840	0.208098	-0.442667	0.585267	0.184096	-0.809249	0.585267	0.128068	-0.809249	0.481985	0.104055	-0.678712	0.447557	0.064028	-0.515558	0.413130	0.800401	-3.765069	3.063606	0.000000	0.000000	7.721951	2.412110	-2.202015	34.226449	7.233952	134.781563	20.430997	20.157836	8.976894	-14.623856	28.121040	-11.451290	107.740367	13.284675	14.151959	4.331705	-12.239153
3.288136	-4.403404	-5.309855	79.657713	0.124770	0.988103	0.298673	0.616631	-2.536944	-12.814671	4.844043	0.084545	17.474516	17.318077	0.000000	0.699260	4.692801	-5.457969	3.907471	0.068198	10.171277	-16.539629	0.000000	0.112772	-0.352657	0.726939	0.209428	-0.469034	0.772373	0.185273	-0.857451	0.772373	0.128887	-0.857451	0.636071	0.104720	-0.719138	0.590638	0.064438	-0.546266	0.545204	0.805517	-3.989328	4.043016	0.000000	0.000000	7.762447	2.430111	-3.173666	33.763541	6.065365	122.430006	26.933381	24.357932	10.216469	-12.146111	28.721252	-11.379518	100.286296	16.808172	17.341700	2.924909	-12.061615
3.305085	-4.441581	-5.280251	79.291179	0.125098	0.987925	0.298144	0.659733	-2.614969	-12.464105	4.977725	0.086878	17.593542	17.318212	0.000000	0.590587	4.763853	-5.774684	3.780108	0.065975	10.311855	-16.486957	0.000000	0.113278	-0.361906	0.905862	0.210369	-0.481335	0.962478	0.186105	-0.879939	0.962478	0.129466	-0.879939	0.792629	0.105190	-0.737999	0.736013	0.064727	-0.560593	0.679396	0.809134	-4.093957	5.038130	0.000000	0.000000	7.809649	2.375604	-4.187336	33.069624	4.623736	109.768755	33.580311	27.867834	11.126195	-9.739749	29.142418	-11.290381	92.734367	20.518663	21.191783	1.317365	-11.542032
3.322034	-4.424451	-5.236079	79.009397	0.125157	0.987744	0.297435	0.640445	-2.645504	-12.208284	5.078076	0.088629	17.707536	17.333248	0.000000	0.451532	4.788823	-6.015108	3.672785	0.064102	10.427182	-16.438475	0.000000	0.111917	-0.362593	1.082131	0.207840	-0.482248	1.149765	0.183868	-0.881608	1.149765	0.127910	-0.881608	0.946865	0.103926	-0.739399	0.879232	0.063949	-0.561656	0.811599	0.799410	-4.101722	6.018490	0.000000	0.000000	7.852213	2.270321	-5.249622	32.160913	2.968060	97.115114	40.168643	30.524107	11.578908	-7.382963	29.408223	-11.172321	85.454957	24.246030	25.530470	-0.350164	-10.689827
3.338983	-4.361973	-5.180759	78.811746	0.124971	0.987581	0.296604	0.569995	-2.637707	-12.050534	5.151616	0.089913	17.821671	17.358392	0.000000	0.293328	4.775065	-6.172794	3.596800	0.062776	10.512716	-16.402326	0.000000	0.108822	-0.356173	1.251060	0.202092	-0.473710	1.329251	0.178783	-0.865999	1.329251	0.124372	-0.865999	1.094677	0.101052	-0.726308	1.016486	0.062181	-0.551712	0.938295	0.777301	-4.029099	6.958018	0.000000	0.000000	7.888560	2.134792	-6.313294	31.070650	1.166825	84.844853	46.496833	32.350574	11.376139	-5.145701	29.532911	-11.016715	78.796765	27.807401	30.056759	-1.917916	-9.568545
